<?xml version="1.0" encoding="UTF-8"?>
<svg xmlns="http://www.w3.org/2000/svg" xmlns:xlink="http://www.w3.org/1999/xlink" width="32px" height="32px" viewBox="0 0 32 32" version="1.1">
<g id="surface1">
<path style=" stroke:none;fill-rule:nonzero;fill:rgb(85.098039%,32.941176%,34.901961%);fill-opacity:1;" d="M 32 16 C 32 24.835938 24.835938 32 16 32 C 7.164062 32 0 24.835938 0 16 C 0 7.164062 7.164062 0 16 0 C 24.835938 0 32 7.164062 32 16 Z M 32 16 "/>
<path style=" stroke:none;fill-rule:nonzero;fill:rgb(69.803922%,24.705882%,27.843137%);fill-opacity:1;" d="M 32 15.945312 L 24.089844 8.035156 L 8.039062 24.085938 L 15.953125 32 C 15.96875 32 15.984375 32 16 32 C 24.835938 32 32 24.835938 32 16 C 32 15.980469 32 15.964844 32 15.945312 Z M 32 15.945312 "/>
<path style=" stroke:none;fill-rule:nonzero;fill:rgb(92.54902%,94.117647%,94.509804%);fill-opacity:1;" d="M 10.054688 7.109375 L 21.945312 7.109375 C 23.570312 7.109375 24.890625 8.429688 24.890625 10.054688 L 24.890625 21.945312 C 24.890625 23.570312 23.570312 24.890625 21.945312 24.890625 L 10.054688 24.890625 C 8.429688 24.890625 7.109375 23.570312 7.109375 21.945312 L 7.109375 10.054688 C 7.109375 8.429688 8.429688 7.109375 10.054688 7.109375 Z M 10.054688 7.109375 "/>
<path style=" stroke:none;fill-rule:nonzero;fill:rgb(77.647059%,23.529412%,13.333333%);fill-opacity:1;" d="M 22.464844 14.226562 C 22.464844 12.441406 21.015625 10.992188 19.230469 10.992188 C 17.449219 10.992188 16 12.441406 16 14.226562 C 16 12.441406 14.550781 10.992188 12.769531 10.992188 C 10.984375 10.992188 9.535156 12.441406 9.535156 14.226562 C 9.535156 18.535156 16 21.867188 16 21.867188 C 16 21.867188 22.464844 18.511719 22.464844 14.226562 Z M 22.464844 14.226562 "/>
</g>
</svg>
