<svg width="36" height="36" viewBox="0 0 36 36" fill="none" xmlns="http://www.w3.org/2000/svg">
<path d="M36 32C36 34.209 34.209 36 32 36H4C1.791 36 0 34.209 0 32V4C0 1.791 1.791 0 4 0H32C34.209 0 36 1.791 36 4V32Z" fill="#DD2E44"/>
<path d="M31.885 13.764C31.885 9.533 28.455 6.103 24.225 6.103C21.658 6.103 19.391 7.371 18 9.309C16.61 7.371 14.343 6.103 11.776 6.103C7.545 6.103 4.115 9.533 4.115 13.764C4.115 14.364 4.191 14.944 4.321 15.504C5.385 22.113 12.733 29.085 18 31C23.266 29.085 30.614 22.113 31.678 15.504C31.809 14.944 31.885 14.364 31.885 13.764Z" fill="#F5F8FA"/>
</svg>
